<?xml version="1.0" standalone="no"?>
<!DOCTYPE svg PUBLIC "-//W3C//DTD SVG 20010904//EN"
 "http://www.w3.org/TR/2001/REC-SVG-20010904/DTD/svg10.dtd">
<svg version="1.0" xmlns="http://www.w3.org/2000/svg"
 width="512.000000pt" height="512.000000pt" viewBox="0 0 512.000000 512.000000"
 preserveAspectRatio="xMidYMid meet">
<metadata>
Created by potrace 1.11, written by Peter Selinger 2001-2013
</metadata>
<g transform="translate(0.000000,512.000000) scale(0.100000,-0.100000)"
fill="#000000" stroke="none">
<path d="M2576 4743 c-4 -4 -32 -7 -64 -8 -38 0 -73 -8 -105 -24 -36 -17 -218
-193 -756 -731 -390 -390 -706 -711 -703 -715 4 -4 3 -5 -3 -4 -5 2 -125 -112
-266 -253 -235 -236 -309 -323 -294 -348 3 -5 1 -11 -5 -15 -5 -3 -10 -15 -10
-26 0 -11 -4 -18 -9 -15 -10 7 -9 -20 2 -30 12 -12 8 -26 -5 -18 -9 6 -9 3 0
-9 8 -9 11 -21 7 -27 -3 -5 -2 -10 2 -10 5 0 9 -9 10 -20 3 -33 40 -103 71
-136 17 -18 29 -34 26 -37 -3 -3 4 -8 15 -12 12 -3 21 -14 21 -22 0 -9 3 -14
6 -11 5 6 92 -77 93 -88 0 -3 10 -14 23 -24 50 -40 206 -199 201 -204 -4 -3
-2 -6 4 -6 14 0 193 -177 193 -190 0 -5 4 -10 9 -10 12 0 400 -388 394 -394
-2 -2 5 -7 16 -11 12 -3 21 -14 21 -22 0 -9 2 -14 5 -11 3 3 201 -190 440
-429 502 -502 489 -492 637 -489 61 2 92 7 98 15 4 8 13 10 19 7 6 -4 11 -2
11 3 0 6 7 11 15 11 9 0 18 7 21 15 4 8 15 15 26 15 10 0 17 3 15 8 -3 4 12
20 32 37 20 16 64 60 99 97 34 37 62 64 62 60 0 -4 9 7 20 23 11 17 20 26 20
21 0 -4 15 10 33 32 17 23 37 42 42 42 6 1 36 30 67 65 31 35 58 62 60 61 2 0
19 16 39 36 21 21 35 38 33 38 -2 0 25 27 60 59 35 33 62 62 59 64 -2 3 5 8
16 12 11 3 23 15 26 25 3 10 14 22 23 25 9 3 33 26 52 50 19 24 38 44 42 44 8
1 78 72 98 100 8 12 19 21 25 21 5 1 24 19 40 40 17 21 35 39 42 40 6 0 15 9
18 20 3 11 12 20 18 20 7 0 23 16 37 34 14 19 27 33 30 32 3 -1 15 8 27 21 12
13 20 23 18 23 -3 0 25 27 60 60 35 33 62 60 59 60 -3 0 15 17 40 38 24 20 45
42 45 48 1 6 12 17 26 24 14 7 23 15 20 18 -5 5 20 32 32 33 4 0 28 25 53 54
25 29 52 56 60 60 8 3 31 26 50 50 19 24 40 44 47 44 6 1 15 10 18 21 3 11 12
20 18 20 7 1 26 19 42 40 17 21 35 40 40 41 8 1 112 111 152 162 20 25 52 97
40 90 -7 -4 -6 1 2 10 7 9 11 17 8 17 -4 0 0 17 8 39 8 23 10 42 4 48 -5 5
-10 23 -12 39 -8 77 -54 133 -353 433 -162 162 -294 298 -294 303 0 4 -6 8
-13 8 -7 0 -26 18 -43 40 -16 22 -32 40 -35 40 -12 0 -356 349 -351 355 3 3 1
5 -5 5 -13 0 -843 830 -843 843 0 6 -3 8 -6 4 -3 -3 -20 7 -38 23 -17 17 -36
30 -42 30 -7 0 -24 7 -40 14 -15 8 -32 12 -37 9 -5 -3 -12 0 -16 6 -4 6 -11 8
-15 4z"/>
</g>
</svg>
